<svg width="337" height="337" viewBox="0 0 337 337" fill="none" xmlns="http://www.w3.org/2000/svg">
<circle cx="168.5" cy="168.5" r="168.5" fill="#161616"/>
<path d="M107.574 220.591C101.21 220.591 95.5923 218.983 90.7202 215.768C85.848 212.52 82.0365 207.946 79.2855 202.047C76.5346 196.114 75.1591 189.104 75.1591 181.017C75.1591 172.996 76.5346 166.036 79.2855 160.136C82.0365 154.237 85.8646 149.679 90.7699 146.464C95.6752 143.25 101.343 141.642 107.773 141.642C112.744 141.642 116.672 142.471 119.555 144.128C122.472 145.752 124.693 147.608 126.217 149.696C127.775 151.751 128.985 153.441 129.847 154.767H130.841V117.182H142.574V219H131.239V207.267H129.847C128.985 208.659 127.759 210.416 126.168 212.537C124.577 214.625 122.306 216.498 119.357 218.155C116.407 219.779 112.479 220.591 107.574 220.591ZM109.165 210.051C113.871 210.051 117.848 208.825 121.097 206.372C124.345 203.886 126.814 200.456 128.504 196.081C130.195 191.673 131.04 186.585 131.04 180.818C131.04 175.117 130.211 170.129 128.554 165.854C126.897 161.545 124.444 158.197 121.196 155.811C117.948 153.392 113.938 152.182 109.165 152.182C104.193 152.182 100.05 153.458 96.7358 156.01C93.4545 158.529 90.9853 161.959 89.3281 166.301C87.7041 170.61 86.892 175.449 86.892 180.818C86.892 186.254 87.7206 191.192 89.3778 195.634C91.0682 200.042 93.554 203.555 96.8352 206.173C100.15 208.759 104.259 210.051 109.165 210.051ZM163.504 219V210.051L206.857 154.369V153.574H164.896V142.636H221.97V151.983L179.811 207.267V208.062H223.362V219H163.504ZM249.985 219.795C247.532 219.795 245.428 218.917 243.671 217.161C241.915 215.404 241.036 213.299 241.036 210.847C241.036 208.394 241.915 206.289 243.671 204.533C245.428 202.776 247.532 201.898 249.985 201.898C252.438 201.898 254.542 202.776 256.299 204.533C258.056 206.289 258.934 208.394 258.934 210.847C258.934 212.471 258.52 213.962 257.691 215.321C256.896 216.68 255.818 217.774 254.46 218.602C253.134 219.398 251.642 219.795 249.985 219.795Z" fill="#E5E5E5"/>
</svg>
